<?xml version="1.0" encoding="UTF-8"?>
<svg width="26px" height="14px" viewBox="0 0 26 14" version="1.1" xmlns="http://www.w3.org/2000/svg" xmlns:xlink="http://www.w3.org/1999/xlink">
    <!-- Generator: Sketch 53.2 (72643) - https://sketchapp.com -->
    <title>icon/media/camera</title>
    <desc>Created with Sketch.</desc>
    <defs>
        <path d="M6.25,17.5001255 L14.375,17.5001255 L14.375,15.0001255 L6.25,15.0001255 L6.25,17.5001255 Z M15,18.7501255 L5.625,18.7501255 C5.28,18.7501255 5,18.4701255 5,18.1251255 L5,14.3751255 C5,14.0301255 5.28,13.7501255 5.625,13.7501255 L15,13.7501255 C15.34625,13.7501255 15.625,14.0301255 15.625,14.3751255 L15.625,18.1251255 C15.625,18.4701255 15.34625,18.7501255 15,18.7501255 L15,18.7501255 Z M3.75,20.0001255 L17.5,20.0001255 L17.5,10.0001255 L3.75,10.0001255 L3.75,20.0001255 Z M18.125,21.2501255 L3.125,21.2501255 C2.78,21.2501255 2.5,20.9701255 2.5,20.6251255 L2.5,9.37512548 C2.5,9.03012548 2.78,8.75012548 3.125,8.75012548 L18.125,8.75012548 C18.47125,8.75012548 18.75,9.03012548 18.75,9.37512548 L18.75,20.6251255 C18.75,20.9701255 18.47125,21.2501255 18.125,21.2501255 L18.125,21.2501255 Z M21.25025,16.5211255 L26.25025,19.5211255 L26.25025,10.4786255 L21.25025,13.4786255 L21.25025,16.5211255 Z M26.87525,21.2498755 C26.764,21.2498755 26.65275,21.2211255 26.554,21.1611255 L20.304,17.4111255 C20.11525,17.2986255 20.00025,17.0948755 20.00025,16.8748755 L20.00025,13.1248755 C20.00025,12.9048755 20.11525,12.7011255 20.304,12.5886255 L26.554,8.83862548 C26.74775,8.72237548 26.989,8.72112548 27.18275,8.83112548 C27.379,8.94237548 27.50025,9.15112548 27.50025,9.37487548 L27.50025,20.6248755 C27.50025,20.8498755 27.379,21.0586255 27.18275,21.1698755 C27.08775,21.2236255 26.9815,21.2498755 26.87525,21.2498755 L26.87525,21.2498755 Z" id="path-1"></path>
    </defs>
    <g id="Page-1" stroke="none" stroke-width="1" fill="none" fill-rule="evenodd">
        <g id="ICV-Camera-Detailview" transform="translate(-680.000000, -129.000000)">
            <g id="icon/media/camera" transform="translate(678.000000, 121.000000)">
                <g id="icon">
                    <rect id="icon-area" fill-rule="nonzero" x="0" y="0" width="30" height="30"></rect>
                    <mask id="mask-2" fill="white">
                        <use xlink:href="#path-1"></use>
                    </mask>
                    <use id="Fill-237" fill="#8DBFCF" xlink:href="#path-1"></use>
                    <g id="color/special/successful" mask="url(#mask-2)" fill="#64A844">
                        <rect id="Rectangle-Copy" x="0" y="0" width="29.7619048" height="29.7619048"></rect>
                    </g>
                </g>
            </g>
        </g>
    </g>
</svg>