<?xml version="1.0" encoding="UTF-8"?>
<svg width="21px" height="21px" viewBox="0 0 21 21" version="1.1" xmlns="http://www.w3.org/2000/svg"
     xmlns:xlink="http://www.w3.org/1999/xlink">
    <!-- Generator: Sketch 53.2 (72643) - https://sketchapp.com -->
    <title>icon/basics/zoom-in</title>
    <desc>Created with Sketch.</desc>
    <defs>
        <path d="M13.07375,14.3225012 L8.69875,14.3225012 L8.69875,13.0725012 L13.07375,13.0725012 L13.07375,8.6975012 L14.32375,8.6975012 L14.32375,13.0725012 L18.69875,13.0725012 L18.69875,14.3225012 L14.32375,14.3225012 L14.32375,18.6975012 L13.07375,18.6975012 L13.07375,14.3225012 Z M20.3498376,19.464972 L26.04125,25.1575012 L25.1575,26.0412512 L19.4662323,20.3488666 C17.9353599,21.6758287 15.9305574,22.4762512 13.73875,22.4762512 L13.62625,22.4762512 C8.95875,22.4087512 5.06875,18.5187512 5.00125,13.8512512 L5.00125,13.8550012 L5,13.7375012 C5,11.3200012 5.975,9.1312512 7.55375,7.5525012 C9.1325,5.9737512 11.32125,4.9987512 13.73875,5.0000012 L13.73875,5.6250012 L13.73875,6.2500012 C9.58625,6.2512512 6.25125,9.5850012 6.25,13.7375012 L6.25125,13.8312512 L6.25125,13.8350012 C6.29125,17.8025012 9.675,21.1850012 13.64125,21.2262512 L13.73875,21.2262512 C17.8925,21.2250012 21.22625,17.8912512 21.2275,13.7375012 C21.22625,9.5850012 17.8925,6.2512512 13.73875,6.2500012 L13.73875,5.0000012 C16.15625,4.9987512 18.34625,5.9737512 19.92375,7.5525012 C21.50375,9.1312512 22.4775,11.3200012 22.4775,13.7375012 C22.4775,15.9293032 21.676054,17.9341011 20.3498376,19.464972 Z"
              id="path-1"></path>
    </defs>
    <g id="Page-1" stroke="none" stroke-width="1" fill="none" fill-rule="evenodd">
        <g id="ICV-Camera-Detailview" transform="translate(-1331.000000, -257.000000)">
            <g id="arrows" transform="translate(1103.000000, 248.000000)">
                <g id="arrow-zoomin" transform="translate(219.000000, 0.000000)">
                    <g id="icon/basics/zoom-in" transform="translate(4.000000, 4.000000)">
                        <g id="icon">
                            <rect id="icon-area" fill-rule="nonzero" x="0" y="0" width="30" height="30"></rect>
                            <mask id="mask-2" fill="white">
                                <use xlink:href="#path-1"></use>
                            </mask>
                            <use id="Fill-189" fill="#7FB3BB" xlink:href="#path-1"></use>
                            <g id="color/special/white" mask="url(#mask-2)" fill="#FFFFFF">
                                <rect id="Rectangle-Copy" x="0" y="0" width="29.7619048" height="29.7619048"></rect>
                            </g>
                        </g>
                    </g>
                </g>
            </g>
        </g>
    </g>
</svg>